<?xml version="1.0" encoding="utf-8"?>
<!-- Generator: Adobe Illustrator 18.1.0, SVG Export Plug-In . SVG Version: 6.00 Build 0)  -->
<svg version="1.1" id="Layer_1" xmlns="http://www.w3.org/2000/svg" xmlns:xlink="http://www.w3.org/1999/xlink" x="0px" y="0px"
	 viewBox="0 0 619.6 156.8" enable-background="new 0 0 619.6 156.8" xml:space="preserve">
<g>
	<path fill="#CA2027" d="M142.3,55.3c6.7,0,13.2-5.6,14.3-12.5c1.3-6.7-3.2-12.3-9.9-12.3c-6.7,0-13.2,5.6-14.3,12.3
		C131,49.7,135.4,55.3,142.3,55.3z"/>
	<path fill="#CA2027" d="M598.5,75.2c0,0,14.8,0,15,0c2.1,0,3.3-0.8,3.7-2.8c0.7-2.8,1.9-7.6,2.2-8.9c0.4-1.7-0.6-3-2.5-3
		c-0.5,0-7.5,0-14.8,0c1.1-4.3,5.2-18.1,5.2-27.1c0-18-15.3-33.3-36.9-33.3c-24.5,0-40.4,16.4-40.4,39.5c0,6.7,2.5,14.6,5.6,19.5
		c-1.3-0.1-2.6-0.1-4-0.1c-18.6,0-30.3,10.1-30.3,24.8c0,13.8,10.9,19.1,21.1,22.7c9.1,3.2,17.4,4.6,17.4,11.7
		c0,4.8-4.6,7.6-13.6,7.6c-10.7,0-16.6-5-18-6.9c1-0.8,2.5-2.7,2.5-5.8c0-4.4-3.1-8-8.9-8c-4.9,0-9,4-10,9.2
		c-7.8,6.4-16.4,10.5-28.5,10.5c-11.9,0-18.1-6.2-18.1-19.4c2.8,0.8,10.1,1.9,14.9,1.9c20.2,0,33.9-9.2,33.9-27.5
		c0-9.9-8.7-20.3-25.8-20.3h0c-22.6,0-35.2,14.3-40.7,30c-1.5-0.4-3.1-0.7-4.6-1.1c1.2-3.5,2.1-7.5,2.1-12c0-7.8-4.8-16.9-17.7-16.9
		c-9,0-17.5,5.9-23.4,14.7c1.5-5.7,2.4-9.6,2.5-9.8c0.4-1.5-0.2-3.2-2.6-3.2c-3,0-13.2,0-13.2,0c-1.9,0-3.2,0.7-3.7,2.8
		c-0.4,1.4-4.9,19.2-9.3,36.6c-2.8,10.8-17.2,24.3-35.3,24.3c-11.9,0-18.1-6.6-18.1-19.8c3.1,1.2,10.1,2.3,14.9,2.3
		c21,0,33.9-9.2,33.9-27.5c0-9.9-8.7-20.3-25.8-20.3h0c-25.4,0-41,19.7-43.6,42.1c-1.1,9.3-8.9,22.1-17.5,22.1c-4.1,0-6.5-2.6-6.5-7
		c0-3.8,2.7-13.2,5.6-24.9c1-3.9,2.5-9.9,4.1-16.5c7.5,0,13.5,0,13.8,0c2.1,0,3.3-0.8,3.7-2.8c0.7-2.8,1.9-7.6,2.2-8.9
		c0.4-1.7-0.6-3-2.5-3c-0.5,0-13.6,0-13.6,0s6.3-25,6.4-25.6c0.6-2.5-1.5-4-3.7-3.5c0,0-10.5,2.1-12.4,2.5c-2,0.4-3.5,1.5-4.2,4.3
		c-0.1,0.4-5.6,22.4-5.6,22.4s-10.7,0-10.9,0c-2.1,0-3.3,0.8-3.7,2.8c-0.7,2.8-1.9,7.6-2.2,8.9c-0.5,1.7,0.6,3,2.5,3
		c0.4,0,4.9,0,10.7,0c-0.1,0.3-3.9,14.7-6.9,27.6c-1.4,6.2-6.3,20.7-14.2,20.7c-4.7,0-6.7-2.4-6.7-7.5c0-8,7.9-28.2,7.9-37.3
		c0-12.2-6.6-19.3-20-19.3c-8.5,0-17.2,5.5-21,10.3c0,0,1.1-3.9,1.5-5.4c0.4-1.6-0.4-3.2-2.5-3.2c-3,0-10.3,0-13.1,0
		c-2.8,0-3.6,1.5-4,3.1c-0.2,0.7-4.9,19.2-9.4,37.1c-3.1,12.2-10.7,22.4-18.7,22.4c-4.1,0-6-2.6-6-7c0-3.8,2.5-13.2,5.4-24.9
		c3.6-14.2,6.7-26,7.1-27.3c0.4-1.8-0.3-3.3-2.6-3.3c-2.8,0-10.2,0-13.2,0c-2.4,0-3.2,1.3-3.7,3c0,0-3.7,14.1-7.7,29.7
		c-2.9,11.4-6,22.9-6,28.4c0,9.7,4.4,17,16.3,17c9.2,0,16.6-4.7,22.2-10.7c-0.8,3.2-1.3,5.3-1.4,5.5c-0.5,1.8,0.1,3.5,2.3,3.5
		c3,0,10.6,0,13.5,0c2.4,0,3.3-0.9,3.7-3c0.5-2,10.6-41.6,10.6-41.6c2.7-10.7,9.3-17.7,18.5-17.7c4.4,0,8.2,2.9,7.8,8.6
		c-0.5,6.2-8,28.6-8,38.4c0,7.4,2.8,17.1,16.8,17.1c9.5,0,16.6-4.6,21.7-10.5c1.9,6.3,6.8,10.5,15.9,10.5c15.1,0,24.2-9,29.6-18
		c4.4,10.5,14.8,18,30.1,18c15.5,0,27.6-6.5,36.1-15.5c-1.5,6-2.6,10.1-2.7,10.4c-0.5,1.9,0.3,3.4,2.5,3.4c2.9,0,12.1,0,13.4,0
		c1.8,0,3.1-0.9,3.6-2.9c0.2-0.9,2.2-8.4,4.9-19c5.2-20.3,13.6-41.4,26.2-41.4c4.4,0,6.3,2.5,6.3,6.4c0,1.8-0.5,3.4-1,4.3
		c-6.1-1.2-11,1.8-11,8.3c0,4.2,4.5,8.1,10.5,8.1c4.6,0,8.4-1.1,11.5-3.2c2.8,0.6,5.9,1.2,9,2c-0.5,3.1-0.7,6.1-0.7,8.9
		c0,16.3,11.6,30.1,32.5,30.1c16.3,0,27.6-6,37.2-13.6c4.7,7.6,16.4,13.8,31.8,13.8c21.1,0,33.1-11,33.1-25.5
		c0-13.1-10.8-18-21.9-22c-9-3.3-16.6-5-16.6-11.4c0-5.2,4.1-7.6,11.2-7.6c4.6,0,8,1,9.9,1.5c1.8,4.6,5.6,9.6,12,9.6
		c5.5,0,7.9-4.3,7.9-8.3c0-11.3-18.8-12.5-18.8-36.7c0-15.1,8.5-27.5,26.2-27.5c12.3,0,20.3,7.8,20.3,20.3c0,10.4-6.3,28.8-6.3,28.8
		s-10.4,0-10.7,0c-2.1,0-3.3,0.8-3.7,2.8c-0.7,2.8-1.9,7.6-2.2,8.9c-0.4,1.7,0.6,3,2.5,3c0.4,0,10.4,0,10.4,0s-10.8,39.7-10.8,47
		c0,9.7,5.5,17,17.5,17c17,0,27.5-11,32.2-27c0.4-1.2-0.3-2.2-1.6-2.2c-2.2,0-5.5,0-6.5,0c-1.3,0-2,0.7-2.4,2
		c-1.5,5.7-5.1,11.7-12.2,11.7c-4.1,0-6.5-2.6-6.5-7c0-3.8,2.5-12.8,5.6-24.9C595.8,86,598.5,75.2,598.5,75.2z M464.8,74.6
		c6,0,8.8,4,8.8,8.7c0,8-6.2,12.9-16,12.9c-3.5,0-8.4-0.8-11.2-1.8C447.6,87.1,453,74.6,464.8,74.6z M323.8,74.6
		c6.6,0,8.8,4,8.8,8.7c0,8-6.2,12.9-16,12.9c-3.5,0-8.4-0.8-11.3-1.8C306.6,87.1,311.3,74.6,323.8,74.6z"/>
	<path fill="#CA2027" d="M64.3,0C21.6,0,0,30.7,0,56.2c0,15.5,5.9,29.3,18.4,34.4c2.1,0.8,3.9,0,4.5-2.3c0.4-1.6,1.4-5.6,1.8-7.2
		c0.6-2.3,0.4-3.1-1.3-5c-3.6-4.3-5.9-9.8-5.9-17.7c0-22.8,17-43.1,44.3-43.1c24.2,0,37.5,14.8,37.5,34.5c0,26-11.5,47.9-28.5,47.9
		c-9.4,0-16.5-7.8-14.2-17.3c2.7-11.4,7.9-23.7,7.9-31.9c0-7.4-4-13.5-12.1-13.5c-9.6,0-17.4,10-17.4,23.3c0,8.5,2.9,14.2,2.9,14.2
		s-9.9,41.8-11.6,49.1c-3.4,14.6-0.5,32.4-0.3,34.2c0.1,1.1,1.5,1.3,2.1,0.5c0.9-1.2,12.4-15.3,16.3-29.5c1.1-4,6.3-24.7,6.3-24.7
		c3.1,6,12.3,11.2,22,11.2c28.9,0,48.6-26.4,48.6-61.7C121.3,24.9,98.7,0,64.3,0z"/>
</g>
</svg>
