<?xml version="1.0" encoding="utf-8"?>
<!-- Generator: Adobe Illustrator 18.1.0, SVG Export Plug-In . SVG Version: 6.00 Build 0)  -->
<svg version="1.1" id="Layer_1" xmlns="http://www.w3.org/2000/svg" xmlns:xlink="http://www.w3.org/1999/xlink" x="0px" y="0px"
	 viewBox="-556.8 0.9 400 400" enable-background="new -556.8 0.9 400 400" xml:space="preserve">
<g>
	<title>Magnifying Glass</title>
</g>
<path d="M-279,254.3c21.7-27.2,33.6-60.9,33.6-95.6C-245.4,73.9-314.3,5-399,5c-41.1,0-79.7,16-108.7,45c-29,29-45,67.6-45,108.7
	c0,84.7,68.9,153.6,153.7,153.6c34.7,0,68.5-11.9,95.7-33.6l118,118l24.4-24.4L-279,254.3z M-279.9,158.7
	c0,65.7-53.5,119.2-119.2,119.2s-119.2-53.5-119.2-119.2c0-31.9,12.4-61.8,34.9-84.3c22.5-22.5,52.4-34.9,84.3-34.9
	C-333.3,39.5-279.9,93-279.9,158.7z"/>
</svg>
