<?xml version="1.0" encoding="utf-8"?>
<!-- Generator: Adobe Illustrator 18.1.0, SVG Export Plug-In . SVG Version: 6.00 Build 0)  -->
<svg version="1.1" id="Layer_1" xmlns="http://www.w3.org/2000/svg" xmlns:xlink="http://www.w3.org/1999/xlink" x="0px" y="0px"
	 viewBox="146 290 500 500" enable-background="new 146 290 500 500" xml:space="preserve">
<path d="M499.7,601.5c24.1-33,37.4-73.3,37.4-114c0-106.8-86.9-193.8-193.7-193.8c-51.7,0-100.4,20.1-137.1,56.7
	c-36.6,36.6-56.7,85.2-56.7,137.1c0,106.8,86.9,193.7,193.8,193.7c40.8,0,81.1-13.2,114.1-37.4l142.5,142.5l42.3-42.3L499.7,601.5z
	 M477.3,487.5c0,73.9-60.1,134-134,134s-134-60.1-134-134c0-35.8,13.9-69.4,39.3-94.7c25.3-25.3,58.9-39.3,94.7-39.3
	C417.2,353.5,477.3,413.6,477.3,487.5z"/>
</svg>
