<?xml version="1.0" encoding="utf-8"?>
<!-- Generator: Adobe Illustrator 18.1.0, SVG Export Plug-In . SVG Version: 6.00 Build 0)  -->
<svg version="1.1" id="Layer_1" xmlns="http://www.w3.org/2000/svg" xmlns:xlink="http://www.w3.org/1999/xlink" x="0px" y="0px"
	 viewBox="146 290 500 500" enable-background="new 146 290 500 500" xml:space="preserve">
<g>
	<title>Magnifying Glass</title>
</g>
<path d="M498.1,603.2c25.9-33.8,40.1-75.5,40.1-117.9c0-107.3-87.2-194.5-194.4-194.5c-52,0-100.8,20.2-137.6,56.9
	c-36.7,36.7-56.9,85.6-56.9,137.6c0,107.2,87.3,194.4,194.5,194.4c42.4,0,84.2-14.2,118-40.1l146.3,146.3l36.4-36.4L498.1,603.2z
	 M486.7,485.3c0,78.8-64.1,143-143,143s-143-64.1-143-143c0-38.2,14.9-74.1,41.9-101.1c27-27,62.9-41.9,101.1-41.9
	C422.5,342.3,486.7,406.5,486.7,485.3z"/>
</svg>
