<?xml version="1.0" encoding="utf-8"?>
<!-- Generator: Adobe Illustrator 17.1.0, SVG Export Plug-In . SVG Version: 6.00 Build 0)  -->
<!DOCTYPE svg PUBLIC "-//W3C//DTD SVG 1.1//EN" "http://www.w3.org/Graphics/SVG/1.1/DTD/svg11.dtd">
<svg version="1.1" id="Layer_1" xmlns="http://www.w3.org/2000/svg" xmlns:xlink="http://www.w3.org/1999/xlink" x="0px" y="0px"
	 width="119.2px" height="96.9px" viewBox="57.4 46.6 119.2 96.9" enable-background="new 57.4 46.6 119.2 96.9"
	 xml:space="preserve">
<path fill="#FFFFFF" d="M176.6,58.1c-4.4,1.9-9.1,3.3-14.1,3.9c5-3,8.9-7.8,10.8-13.6c-4.7,2.8-9.9,4.8-15.5,6
	c-4.4-4.8-10.8-7.7-17.8-7.7c-13.5,0-24.5,11-24.5,24.5c0,1.9,0.2,3.8,0.6,5.6c-20.3-1-38.4-10.8-50.4-25.6
	c-2.1,3.6-3.3,7.8-3.3,12.3c0,8.5,4.3,15.9,10.9,20.4c-4-0.1-7.8-1.2-11.1-3.1c0,0.1,0,0.2,0,0.3c0,11.9,8.5,21.8,19.6,24
	c-2,0.6-4.2,0.9-6.4,0.9c-1.6,0-3.1-0.2-4.6-0.5c3.1,9.7,12.1,16.8,22.8,17c-8.4,6.6-18.9,10.5-30.4,10.5c-2,0-3.9-0.1-5.9-0.4
	c10.8,6.9,23.7,11,37.5,11c45,0,69.6-37.3,69.6-69.6c0-1.1,0-2.1-0.1-3.2C169.2,67.3,173.4,63,176.6,58.1z"/>
</svg>
