<svg xmlns="http://www.w3.org/2000/svg" viewBox="0 0 129.5 131.2"><g fill="#fff"><path d="M110.7 0H18.9C8.5 0 0 8.6 0 19.1v93c0 10.5 8.5 19.1 18.9 19.1h91.8c10.4 0 18.9-8.6 18.9-19.1v-93C129.5 8.6 121.1 0 110.7 0zm14.4 112.1c0 8.1-6.5 14.7-14.5 14.7H18.9c-8 0-14.5-6.6-14.5-14.7v-93c0-8.1 6.5-14.7 14.5-14.7h91.8c8 0 14.5 6.6 14.5 14.7v93zM32.1 95.1c-1.8-2.7-2.7-8.3-2.7-16.7V22.8h-9.7v56.5c0 8.4.7 14.1 2.1 17.7 2.2 5.5 6.8 9.4 13.6 11.5l1.1.3.6-1 3.6-5.8 1-1.6-1.8-.6c-3.9-1.2-6.6-2.8-7.8-4.7zM51.5 22.8c-3.4 0-5.3 1.9-5.3 5.3 0 3.3 1.9 5.3 5.3 5.3 3.3 0 5.3-1.9 5.3-5.3s-1.9-5.3-5.3-5.3zM48.2 38.9h-1.5v68.7h9.6V38.9h-1.5zM80.1 35c.9-.9 2.9-2.2 7.6-3.7l1.8-.6-1-1.6-3.6-5.9-.6-1-1.1.3c-6.8 2.1-11.3 5.8-13.5 10.9-1.5 3.5-2.2 9-2.2 17 0 .1-.1.3-.1.5V54h-4.3v9.5h4.3v44.1h9.5V63.5h10.3V54H76.9v-7c0-1.2.1-2.7.3-4.8.3-3.3 1.3-5.8 2.9-7.2zM107.6 41.7c-2.2-1.8-4.5-2.7-7.1-2.7h-.5c-2.6 0-4.9.9-7.1 2.6-2.4 1.9-3.6 4.3-3.6 7v36.5c0 6.6.6 11.3 2 14.4 2 4.6 5.9 7.9 11.7 9.6l1.8.5 1-1.6 2.9-4.6 1.6-2.6-3-.9c-3.3-1-4.9-2.1-5.6-2.9-.5-.5-1-1.3-1.3-2.1h.1c2.5 0 4.9-.9 7.1-2.7 2.3-1.9 3.5-4.3 3.5-6.9V48.6c-.1-2.7-1.3-5-3.5-6.9zM103 83.9c0 1.6-1.3 2.9-2.8 2.9-1.6 0-2.8-1.3-2.8-2.9V50.8c0-1.6 1.3-2.9 2.8-2.9 1.6 0 2.8 1.3 2.8 2.9v33.1z"/></g></svg>