<svg xmlns="http://www.w3.org/2000/svg" width="119.2" height="96.9" viewBox="57.4 46.6 119.2 96.9" enable-background="new 57.4 46.6 119.2 96.9"><path fill="#fff" d="M176.6 58.1c-4.4 1.9-9.1 3.3-14.1 3.9 5-3 8.9-7.8 10.8-13.6-4.7 2.8-9.9 4.8-15.5 6-4.4-4.8-10.8-7.7-17.8-7.7-13.5 0-24.5 11-24.5 24.5 0 1.9.2 3.8.6 5.6-20.3-1-38.4-10.8-50.4-25.6-2.1 3.6-3.3 7.8-3.3 12.3 0 8.5 4.3 15.9 10.9 20.4-4-.1-7.8-1.2-11.1-3.1v.3c0 11.9 8.5 21.8 19.6 24-2 .6-4.2.9-6.4.9-1.6 0-3.1-.2-4.6-.5 3.1 9.7 12.1 16.8 22.8 17-8.4 6.6-18.9 10.5-30.4 10.5-2 0-3.9-.1-5.9-.4 10.8 6.9 23.7 11 37.5 11 45 0 69.6-37.3 69.6-69.6 0-1.1 0-2.1-.1-3.2 4.9-3.5 9.1-7.8 12.3-12.7z"/></svg>