<?xml version="1.0" encoding="utf-8"?>
<!-- Generator: Adobe Illustrator 18.1.0, SVG Export Plug-In . SVG Version: 6.00 Build 0)  -->
<svg version="1.1" id="Layer_1" xmlns="http://www.w3.org/2000/svg" xmlns:xlink="http://www.w3.org/1999/xlink" x="0px" y="0px"
	 viewBox="175.5 -92.5 500 500" enable-background="new 175.5 -92.5 500 500" xml:space="preserve">
<path d="M490.1,259.9l-2.8,2.1c-33.2,24.3-74,37.7-115.1,37.7c-107.8,0-195.5-87.6-195.5-195.4C176.8,52,197.1,2.9,234-34
	c37-36.9,86.1-57.2,138.3-57.2c107.7,0,195.4,87.7,195.4,195.5c0,40.8-13.4,81.7-37.7,115l-2.1,2.8l146.4,146.3l-37.8,37.8
	L490.1,259.9z M372.1-37.8c-37.9,0-73.5,14.8-100.4,41.7c-26.9,26.8-41.7,62.4-41.7,100.4c0,78.3,63.7,142,142,142
	c78.3,0,142-63.7,142-142S450.5-37.8,372.1-37.8z"/>
</svg>
