<?xml version="1.0" encoding="utf-8"?>
<!-- Generator: Adobe Illustrator 18.1.0, SVG Export Plug-In . SVG Version: 6.00 Build 0)  -->
<svg version="1.1" id="Layer_1" xmlns="http://www.w3.org/2000/svg" xmlns:xlink="http://www.w3.org/1999/xlink" x="0px" y="0px"
	 viewBox="0 0 800 88.1" enable-background="new 0 0 800 88.1" xml:space="preserve">
<g>
	<g>
		<path fill="#F58E96" d="M55.5,50.2C62.6,45,67.1,36,67.1,27.6c0-16.1-11.6-26.5-29-26.5H0V87h18V54.7h18.7L49.6,87H69L54.8,50.8
			L55.5,50.2L55.5,50.2z M36.7,36.7H18V19.3h19.4c7.7,0,12.2,3.3,12.2,9.1C49.6,33.6,44.4,36.7,36.7,36.7L36.7,36.7z M102.7,50.2
			h23.8v-18h-23.8v-13h44.5V1.1H84v86h63.8V69.6h-45.1L102.7,50.2z M193.1,1.1L156.9,87h18.7l8.4-18.7h32.3l8.4,18.7h18.7L207.9,1.1
			H193.1L193.1,1.1z M191.1,50.2l9.1-21.3l9.1,21.3H191.1L191.1,50.2z M274.5,69.6V1.1h-18.8v86h63.9V69.6H274.5z"/>
	</g>
	<g>
		<path fill="#EF4E73" d="M371.7,18.1c7.7,0,11.6,1.9,20.7,9.7l12.9-11C397.6,6.4,384.6,0,372.4,0C355.6,0,344,10.3,344,25.2
			c0,4.5,1.3,8.4,3.3,12.2c4.6,6.4,10.4,9.7,25.9,13.6c11,2.5,14.9,5.2,14.9,9.7c0,5.8-6.4,9.7-15.5,9.7c-8.4,0-13.6-2.6-21.9-12.9
			l-15.1,9.9c1.2,1.2,1.2,1.9,2.5,2.5c3.9,3.9,6.5,7.1,9.1,9.1c6.5,5.2,16.8,9.1,26.5,9.1c18.1,0,31.7-11.7,31.7-27.8
			c0-10.4-6.4-19.4-15.5-22.6l-11-3.3c-3.3-1.2-5.8-1.9-7.7-2.5c-7.1-1.3-9.7-3.3-9.7-7.1C361.4,20.7,365.3,18.1,371.7,18.1
			L371.7,18.1z M426.8,0.5h18.1v85.9h-18.1V0.5z M508.2,47.1L486.9,0.5h-16.8v85.9h17.4V43.7l20.7,42.7l21.9-43.2v43.2h18.1V0.5
			h-18.1L508.2,47.1z M614.1,0.5h-40v85.9h18.7V54.1h21.3c16.8,0,29-11,29-26.5C643.1,11.5,631.5,0.5,614.1,0.5z M613.4,36.1h-21.3
			V18.7H614c7.1,0,11,3.3,11,9.1C625.1,32.9,620.6,36.1,613.4,36.1L613.4,36.1z M677.3,0.5h-18.7v85.9h64V68.9h-45.3V0.5z
			 M754.2,68.9V49.6h24.5v-18h-24.5v-13h44.6V0.5h-62.7v85.9H800V68.9L754.2,68.9z"/>
	</g>
</g>
</svg>
