<?xml version="1.0" encoding="utf-8"?>
<!-- Generator: Adobe Illustrator 17.1.0, SVG Export Plug-In . SVG Version: 6.00 Build 0)  -->
<!DOCTYPE svg PUBLIC "-//W3C//DTD SVG 1.1//EN" "http://www.w3.org/Graphics/SVG/1.1/DTD/svg11.dtd">
<svg version="1.1" id="YouTube_Logo" xmlns="http://www.w3.org/2000/svg" xmlns:xlink="http://www.w3.org/1999/xlink" x="0px"
	 y="0px" width="158.2px" height="66px" viewBox="0 0 158.2 66" enable-background="new 0 0 158.2 66" xml:space="preserve">
<g id="You">
</g>
<g id="Tube">
	<g>
		<path fill="#FFFFFF" d="M53,45.8c-1.3,1.8-2.3,2.8-3.5,2.8c-0.8,0-1.1-0.3-1.3-1.2c0-0.3,0-0.9,0-2.2V21.5h-6v25.3
			c0,2.2,0.3,3.7,0.7,4.6c0.6,1.6,1.9,2.4,3.8,2.4c2.1,0,4-1.3,6.3-3.9v3.5h6V21.5h-6V45.8z"/>
		<path fill="#FFFFFF" d="M29.4,21.3c-2.9,0-5,0.9-6.6,3.1c-1.2,1.6-1.9,4.2-1.9,7.6l0,11.3c0,3.4,0.6,5.7,1.8,7.3
			c1.6,2.2,4.2,3.3,6.7,3.3s5.2-1.2,6.8-3.3c1.2-1.6,1.8-3.9,1.8-7.3V31.9c0-3.4-0.7-6-1.9-7.6C34.4,22.2,31.9,21.3,29.4,21.3z
			 M29.4,48.7c-1.9,0-2.8-1.6-2.5-4.7V31.3c-0.3-3.2,0.7-4.6,2.5-4.6s2.8,1.5,2.5,4.6l0,12.6C32.2,47.1,31.2,48.7,29.4,48.7z"/>
		<path fill="#FFFFFF" d="M15.5,10.8l-4.4,16.6L6.6,10.8H0c1.3,4,7.9,25.3,7.9,25.3v17.4h6.3V36.1l7.9-25.3H15.5z"/>
		<path fill="#FFFFFF" d="M120.7,26.6c-0.9,0-2,0.5-3,1.4l0,19.1c1,1,2,1.4,3,1.4c1.6,0,2.4-1.2,2.4-4.4V30.7
			C123.1,27.5,122.4,26.6,120.7,26.6z"/>
		<path fill="#FFFFFF" d="M144.3,30.4c0-2.9-0.8-3.8-2.6-3.8c-1.9,0-2.7,0.8-2.7,3.8v3.5l5.4,0V30.4z"/>
		<path fill="#FFFFFF" d="M157.2,14.2c0,0-0.9-6.5-3.7-9.3c-3.6-3.7-7.6-3.8-9.4-4c-13.2-0.9-33-0.9-33-0.9h0c0,0-19.8,0-33,0.9
			c-1.8,0.2-5.9,0.2-9.4,4c-2.8,2.8-3.7,9.3-3.7,9.3s-0.9,7.6-0.9,15.2v7.1c0,7.6,0.9,15.2,0.9,15.2s0.9,6.5,3.7,9.3
			c3.6,3.7,8.3,3.6,10.4,4C86.5,65.8,111,66,111,66s19.8,0,33-1c1.8-0.2,5.9-0.2,9.4-4c2.8-2.8,3.7-9.3,3.7-9.3s0.9-7.6,0.9-15.2
			v-7.1C158.2,21.8,157.2,14.2,157.2,14.2z M84.6,53.4h-6.3V17.1h-6.6v-6l19.9,0v6h-6.9V53.4z M107.3,53.4h-6v-3.5
			c-2.3,2.6-4.2,3.9-6.3,3.9c-1.8,0-3.1-0.9-3.8-2.4c-0.4-1-0.7-2.4-0.7-4.6V21.8h6v23.4c0,1.3,0,1.9,0,2.2c0.1,0.9,0.5,1.2,1.3,1.2
			c1.1,0,2.2-1,3.5-2.8v-24h6V53.4z M129.1,43.9c0,2.9-0.2,5-0.6,6.3c-0.8,2.3-2.4,3.6-4.7,3.6c-2,0-4.1-1.2-6-3.6l0,3.2h-5.7V11.1
			h5.7l0,13.8c1.8-2.3,3.9-3.6,6-3.6c2.3,0,3.8,1.3,4.6,3.7c0.4,1.3,0.8,3.3,0.8,6.3V43.9z M141.7,48.6c1.4,0,2.2-0.8,2.6-2.3
			c0.1-0.3,0-1.7,0-4h6v0.9c0,1.8-0.2,3.1-0.2,3.7c-0.2,1.3-0.6,2.4-1.3,3.4c-1.6,2.3-3.9,3.4-6.9,3.4c-3,0-5.3-1.1-6.9-3.2
			c-1.2-1.6-2-3.9-2-7.3V32.3c0-3.4,0.7-6,1.9-7.6c1.7-2.2,3.9-3.3,6.8-3.3c2.9,0,5.1,1.1,6.7,3.3c1.2,1.6,1.9,4.1,1.9,7.4l0,6.5
			h-11.4v5.7C138.9,47.2,139.7,48.6,141.7,48.6z"/>
	</g>
</g>
</svg>
