<?xml version="1.0" encoding="utf-8"?>
<!-- Generator: Adobe Illustrator 18.1.0, SVG Export Plug-In . SVG Version: 6.00 Build 0)  -->
<svg version="1.1" id="Layer_1" xmlns="http://www.w3.org/2000/svg" xmlns:xlink="http://www.w3.org/1999/xlink" x="0px" y="0px"
	 viewBox="0 0 500 500" enable-background="new 0 0 500 500" xml:space="preserve">
<path fill="#FFFFFF" d="M399.9,18.2H76.1c-31.9,0-58,26.1-58,58v347.7c0,31.9,26.1,58,58,58h347.7c31.9,0,58-26.1,58-58V108.8
	L399.9,18.2z"/>
<g>
	<path d="M423.9,494.9H76.1c-39.2,0-71.1-31.9-71.1-71.1V76.1c0-39.2,31.9-71.1,71.1-71.1h329.6l89.2,98.7v320.1
		C494.9,463.1,463.1,494.9,423.9,494.9z M76.1,31.3c-24.7,0-44.8,20.1-44.8,44.8v347.7c0,24.7,20.1,44.8,44.8,44.8h347.7
		c24.7,0,44.8-20.1,44.8-44.8v-310l-74.7-82.6H76.1z"/>
</g>
<path d="M134,77v144.9c0,15.9,13.5,29.1,29.5,29.1h173.9c16,0,29.7-13.2,29.7-29.1V77H134z M337,221h-58V107h58V221z"/>
</svg>
