<?xml version="1.0" encoding="utf-8"?>
<!-- Generator: Adobe Illustrator 17.1.0, SVG Export Plug-In . SVG Version: 6.00 Build 0)  -->
<!DOCTYPE svg PUBLIC "-//W3C//DTD SVG 1.1//EN" "http://www.w3.org/Graphics/SVG/1.1/DTD/svg11.dtd">
<svg version="1.1" id="Layer_1" xmlns="http://www.w3.org/2000/svg" xmlns:xlink="http://www.w3.org/1999/xlink" x="0px" y="0px"
	 width="81.6px" height="80.1px" viewBox="53.9 53 81.6 80.1" enable-background="new 53.9 53 81.6 80.1" xml:space="preserve">
<path fill="#FFFFFF" d="M58.3,73c0,6.8,2.3,11.7,6.8,14.6c3.7,2.4,7.9,2.7,10.1,2.7c0.5,0,0.9,0,1.2,0c0,0-0.7,4.6,2.7,9.1h-0.2
	c-5.9,0-25,1.2-25,17c0,16,17.6,16.8,21.1,16.8c0.3,0,0.4,0,0.4,0c0,0,0.3,0,0.7,0c2.3,0,8.1-0.3,13.6-2.9
	c7.1-3.4,10.6-9.4,10.6-17.7c0-8-5.5-12.8-9.4-16.3c-2.4-2.1-4.5-4-4.5-5.8s1.5-3.2,3.5-4.9c3.1-2.8,6.1-6.8,6.1-14.3
	c0-6.6-0.9-11.1-6.2-13.9c0.6-0.3,2.5-0.5,3.5-0.6c2.9-0.4,7.1-0.8,7.1-3.2V53h-21C79.2,53,58.3,53.8,58.3,73z M92.1,114
	c0.4,6.4-5.1,11.1-13.3,11.8c-8.4,0.6-15.2-3.1-15.6-9.6c-0.2-3.1,1.2-6.1,3.8-8.5c2.7-2.4,6.4-3.9,10.4-4.2c0.5,0,0.9,0,1.4,0
	C86.5,103.4,91.7,108,92.1,114z M86.6,68.6c2.1,7.2-1,14.8-6,16.2c-0.6,0.2-1.2,0.3-1.8,0.3c-4.5,0-9-4.6-10.7-10.9
	c-0.9-3.5-0.9-6.6,0.2-9.6c1-2.9,2.9-4.9,5.3-5.6c0.6-0.2,1.2-0.3,1.8-0.3C80.9,58.7,84.4,61,86.6,68.6z M121.9,84.3V70.7h-8.7v13.6
	H99.6V93h13.6v13.6h8.7V93h13.6v-8.7H121.9z"/>
</svg>
