<?xml version="1.0" encoding="utf-8"?>
<!-- Generator: Adobe Illustrator 18.1.0, SVG Export Plug-In . SVG Version: 6.00 Build 0)  -->
<svg version="1.1" id="Layer_1" xmlns="http://www.w3.org/2000/svg" xmlns:xlink="http://www.w3.org/1999/xlink" x="0px" y="0px"
	 viewBox="146 290 500 500" enable-background="new 146 290 500 500" xml:space="preserve">
<path fill="#FFFFFF" d="M605,363.9c-3.7-19.1-19.2-33.9-38.2-36.6c-0.8-0.1-1.6-0.3-2.4-0.4H227.6c-2,0.4-4.1,0.6-6.1,1.1
	c-18.6,4.3-32.4,19.5-35,38.6c-0.1,0.8-0.3,1.6-0.4,2.4V711c0.4,2.2,0.7,4.3,1.1,6.5c4.1,18.4,19.6,32.7,38.1,35.2
	c0.9,0.1,1.8,0.3,2.7,0.4h335.9c2.2-0.4,4.4-0.7,6.5-1.2c17.2-3.7,31.2-18.2,34.5-35.7c0.4-1.9,0.6-3.8,0.9-5.8V369.5
	C605.6,367.6,605.3,365.8,605,363.9z M310.9,538.7c0.7-47,38.5-85.1,85.1-85c47.6,0,86,39.9,85,88.3c-1,46.9-39.5,85.4-87,84.4
	C348.3,625.3,310.2,587,310.9,538.7z M560.4,501c0,63,0,126,0,189c0,9.1-7.7,16.9-16.7,16.9c-98.5,0-197,0-295.5,0
	c-8.9,0-16.7-7.8-16.7-16.9c0-63.1,0-126.1,0-189.2v-1.1c13.4,0,26.6,0,40,0c-10.4,36.1-7.6,70.9,10.1,104.1
	c11.9,22.2,29,39.5,50.7,51.9c43,24.5,96.4,22,136.9-6c15.6-10.8,28.4-24.4,38.2-40.8c9.9-16.4,15.9-34.1,18.1-53.1
	c2.2-19,0.5-37.7-5.2-56.1h40.1V501z M560.4,419.2c0,9-7.2,16.8-16.1,17c-7,0.2-13.9,0-20.8,0.1c-6.4,0-12.8,0-19.1,0
	c-7.8,0-14.2-4.4-16.6-11.5c-0.6-1.9-1-4-1-5.9c-0.1-13.3,0-26.7,0-40c0-9.6,7.5-17.3,17-17.3c13.2,0,26.4,0,39.6,0
	c9.5,0,17,7.7,17,17.3C560.4,392.3,560.4,405.8,560.4,419.2z"/>
</svg>
