<?xml version="1.0" encoding="utf-8"?>
<!-- Generator: Adobe Illustrator 18.1.0, SVG Export Plug-In . SVG Version: 6.00 Build 0)  -->
<svg version="1.1" id="Layer_1" xmlns="http://www.w3.org/2000/svg" xmlns:xlink="http://www.w3.org/1999/xlink" x="0px" y="0px"
	 viewBox="0 0 735.8 150.7" enable-background="new 0 0 735.8 150.7" xml:space="preserve">
<path fill="#4967A9" d="M392.7,73.2c-6.3,0-10.8,2.1-15.4,4.2v47.5c4.4,0.4,6.9,0.4,11.1,0.4c15.1,0,17.2-6.9,17.2-16.6V86.1
	C405.6,79,403.2,73.2,392.7,73.2 M292.3,70.6c-10.5,0-12.9,5.8-12.9,12.9v4h25.8v-4C305.2,76.4,302.8,70.6,292.3,70.6 M97.8,120.1
	c0,5.6,2.7,8.6,8.5,8.6c6.3,0,10-2.1,14.6-4.2v-11.3h-13.8C100.7,113.3,97.8,114.5,97.8,120.1 M490.4,73.2
	c-10.5,0-14.1,5.7-14.1,12.8v26c0,7.1,3.6,12.9,14.1,12.9c10.5,0,14.1-5.7,14.1-12.9v-26C504.5,79,500.8,73.2,490.4,73.2
	 M46.3,149.3H15.4V74.6H0V48.9h15.4V33.5c0-21,8.7-33.5,33.5-33.5h20.6v25.7H56.6c-9.6,0-10.3,3.6-10.3,10.3l0,12.9h23.3l-2.7,25.7
	H46.3V149.3z M151.9,149.5h-25.7L125,143c-11.8,6.5-22.2,7.6-29.2,7.6c-18.9,0-28.9-12.6-28.9-30c0-20.5,11.7-27.9,32.7-27.9H121
	v-4.4c0-10.5-1.2-13.6-17.4-13.6H77.2l2.6-25.7h28.9c35.4,0,43.2,11.2,43.2,39.5V149.5z M239.4,76.5c-16-2.7-20.6-3.3-28.3-3.3
	c-13.8,0-18,3.1-18,14.8v22.2c0,11.7,4.2,14.8,18,14.8c7.7,0,12.3-0.6,28.3-3.4v25.1c-14,3.1-23.2,4-30.9,4
	c-33.2,0-46.3-17.4-46.3-42.6v-18c0-25.2,13.2-42.6,46.3-42.6c7.7,0,16.9,0.8,30.9,4V76.5z M336.1,108.1h-56.6v2.1
	c0,11.7,4.2,14.8,18,14.8c12.4,0,20-0.6,36-3.4v25.1c-15.4,3.1-23.4,4-38.6,4c-33.2,0-46.3-17.4-46.3-42.6V87.5c0-22,9.8-40,43.8-40
	c34,0,43.8,17.8,43.8,40V108.1z M436.5,108.6c0,24.3-7,42.1-49.1,42.1c-15.2,0-24.2-1.3-41-3.9V7.7l30.9-5.1v48.6
	c6.7-2.5,15.3-3.7,23.2-3.7c30.9,0,36,13.8,36,36V108.6z M535.4,109.1c0,21-8.7,41.3-45,41.3c-36.3,0-45.1-20.3-45.1-41.3V88.9
	c0-21,8.8-41.3,45.1-41.3c36.3,0,45,20.3,45,41.3V109.1z M634.3,109.1c0,21-8.7,41.3-44.9,41.3c-36.3,0-45.1-20.3-45.1-41.3V88.9
	c0-21,8.8-41.3,45.1-41.3c36.3,0,44.9,20.3,44.9,41.3V109.1z M735.8,149.3h-33.5l-28.3-47.2v47.2h-30.9V7.7l30.9-5.1v91.1l28.3-44.8
	h33.5l-30.9,48.9L735.8,149.3z M589.3,73.2c-10.5,0-14.1,5.7-14.1,12.8v26c0,7.1,3.6,12.9,14.1,12.9c10.5,0,14.2-5.7,14.2-12.9v-26
	C603.4,79,599.7,73.2,589.3,73.2"/>
</svg>
