<?xml version="1.0" encoding="utf-8"?>
<!-- Generator: Adobe Illustrator 18.1.0, SVG Export Plug-In . SVG Version: 6.00 Build 0)  -->
<svg version="1.1" id="Layer_1" xmlns="http://www.w3.org/2000/svg" xmlns:xlink="http://www.w3.org/1999/xlink" x="0px" y="0px"
	 viewBox="0 0 200 162.5" enable-background="new 0 0 200 162.5" xml:space="preserve">
<path fill="#2AA9E0" d="M199,19.9c-7.3,3.2-15.1,5.4-23.3,6.4c8.4-5,14.8-13,17.9-22.5c-7.8,4.7-16.5,8-25.8,9.9
	c-7.4-7.9-18-12.8-29.7-12.8c-22.4,0-40.6,18.2-40.6,40.6c0,3.2,0.4,6.3,1.1,9.3C64.8,49,34.8,32.8,14.8,8.2c-3.5,6-5.5,13-5.5,20.4
	c0,14.1,7.2,26.5,18.1,33.8c-6.7-0.2-12.9-2-18.4-5.1c0,0.2,0,0.3,0,0.5C9,77.6,23,94,41.5,97.7c-3.4,0.9-7,1.4-10.7,1.4
	c-2.6,0-5.2-0.3-7.6-0.7c5.2,16.1,20.2,27.9,37.9,28.2C47.2,137.5,29.7,144,10.7,144c-3.3,0-6.5-0.2-9.7-0.6
	c18,11.5,39.3,18.3,62.3,18.3c74.7,0,115.6-61.9,115.6-115.6c0-1.8,0-3.5-0.1-5.3C186.7,35.2,193.6,28,199,19.9z"/>
</svg>
