<?xml version="1.0" encoding="utf-8"?>
<!-- Generator: Adobe Illustrator 18.1.0, SVG Export Plug-In . SVG Version: 6.00 Build 0)  -->
<svg version="1.1" id="Layer_1" xmlns="http://www.w3.org/2000/svg" xmlns:xlink="http://www.w3.org/1999/xlink" x="0px" y="0px"
	 viewBox="0 0 741.7 168.3" enable-background="new 0 0 741.7 168.3" xml:space="preserve">
<g>
	<path fill="#33598A" d="M739.4,86.1c0,0-2,0.1-2.6,2.1c-0.6,2-1.6,7-2.5,9.2c-0.8,2.3-2.8,7.1-6.5,6.8c-3.7-0.3-10-3.6-7-54.4
		c0,0,1.3-5.9-8.6-9.3c0,0-8.3-3.8-11.2,1.6c-2.9,5.4-10.1,26.2-11.7,38.8c0,0,0,0.3-0.1,0.4c-0.2,0.1-0.4,0-0.4-0.3
		c0,0-1.7-19.7-1.5-31.7c-0.2-7.3-8.1-9.4-8.1-9.4s-7.3-2.5-9.6,1.3c-2.6,4.5-5.4,11.3-11.2,29.1V44c0,0,1.1-3-6.7-4.1l-5.6-0.9
		c0,0-2.4,0.2-2.8,2.8l-0.2,46.3l0,2.4c-2.4,6.4-6.3,14.2-10.9,14.3c-4.8,0.4-6.4-5.2-7.3-14.6c-0.7-16.2,0.5-43.6,0.5-43.6
		c0.2-2.1-2.1-4.8-8.9-5.9c-6.8-1.1-6.4,3.2-6.4,3.2l-0.2,3.6c-5.2-9.8-15-9.4-15-9.4c-16.2,0-23.2,18.4-24.9,34.2
		c-1.3,11.9,1.3,22.2,1.3,22.2s-2.1,8.9-8.4,10.3c-6.3,1.4-8.4-10.7-9.1-18.7c-0.7-8,3.8-27.8,3.8-27.8s1.4-2.5,1.1-5.7
		c-0.5-8.9-8.2-8-14-6.6c-5.7,1.4-12.3,2.3-12.3,2.3c1.3-4.8,0.9-11.7-7-11.7c-7.9,0-10.6,6.4-10.9,11.7c-0.4,5.3,4.6,9.1,4.6,9.1
		c-3.6,18.7-17.9,37.9-17.9,37.9s0.5-46.9,0.5-49.6c0-2.7-0.9-3.4-3.8-4.4c-2.9-1.1-5.5-1.4-5.5-1.4c-6.4-1.2-5.9,3.2-5.9,3.2
		l-0.2,3.4c-5.5-10.1-17.7-9.3-17.7-9.3s-27.5,6.1-21.4,56.3c-1.8,4.8-4.7,10.5-8.9,11.1c-4.8,0.4-6.4-5.2-7.4-14.7
		c-0.7-16.3,0.5-43.9,0.5-43.9c0.2-2.2-2.2-4.8-9-5.9c-6.8-1.1-6.5,3.2-6.5,3.2L416,47c-5.2-9.9-15.1-9.5-15.1-9.5
		c-16.2,0-23.3,18.6-25,34.4c-0.4,4.1-0.5,7.8-0.4,10.9l-0.1,0.2c0,0-5.2,19.7-14,19.3c-6.3,0.1-6.6-15.8-6.6-22.6l1.4-43.5
		l20.2-0.4c0,0,2.4-1,2.9-5c0.5-4-0.2-4.7-2.6-4.9c-2.4-0.2-20.3-1.1-20.3-1.1L357.3,5c0,0,0-1.6-7.2-3.5c-7.2-1.9-9.7-1.3-10.2,2.6
		c-0.1,2.7-0.7,19.6-0.7,19.6l-16.3-0.2c0,0-3.2,2.5-3.2,8.5c0.2,3.2,1.5,3.3,1.5,3.3l17.1,0.2L338.1,73c0,0-0.9,11.2-12.4,21.3
		c0,0,1-2.7,0.4-7c-1.2-8.9-8.8-15-25-26.6c0,0,8.4-9.2,8.2-16.7c0.2-6.9-7.9-6.4-7.9-6.4s-5.2,0.4-9.5,3.5
		c-6.3,4.6-10.7,15.3-2.6,24c0,0-18.2,35.1-23.3,33.9c-2.1-0.3-3.4-3.9-3-13.1c0.3-9.2,1.1-35.1,1.1-35.1s1-5.2-6.3-8.8
		c-7.3-3.6-19.4-11-35.4,36.2l0.2-34.4c0,0,0.2-2.1-6-3.7c-6.2-1.6-8-0.8-8.2,1.2l-0.4,59.4c0,0-0.4,12.4,6.1,12.6
		c6.5,0.2,4.4,0.3,6,0.3c1.6,0,3.3-0.9,3.3-1.6c0-0.8,5.4-40.7,23.7-60.1c0,0,1.2-0.7,1.2,0.7c0,1.3-1.3,26.3-1.1,40.9
		c0.2,14.6,4.9,19.6,9.8,20.3c3.6,0.5,12.7-1.9,22-16.9c3.8-6.8,9-14.6,15.9-26.2c0,0,3.7,3.3,8.5,7.6c4.8,4.4,8.3,9.6,7.8,14.5
		c-0.4,4.9-1.7,9.7-7.7,9.9c-4.7,0-8.8-4-8.8-4s-2.7-2.3-4.2-2.3c-1.5,0-3.4,1.3-5.5,4.5c-2.2,3.2-1.8,4.2-1.8,5.2
		c0,1,2.3,7.8,21.3,8c19,0.1,29.3-15.8,34.5-28.2c0,0,0.8,28,18.8,28c9.8-0.1,16.2-11.7,18.8-18.3c0.2-0.6,0.4-1,0.5-1.5
		c0.5,2.1,1.6,5.8,2.9,8.2c0,0,4.6,11.8,16,12c16.8,0.2,22.9-15.7,22.9-15.7c0.2,2.2,2.6,14.3,14.8,15.7c8.7,1,14-7.3,16.3-12.1
		c8,14.1,17.4,12.2,17.4,12.2s12.2,0.8,20.2-12.5l0.5,7.5c0,0-5,4.5-17.5,16.2s-15.5,20.5-15,25.2c0,0-1.2,16.2,19.8,17.6
		c24.2-2,26.5-26,26.5-43.9c0-9.5-0.2-18-0.2-18c23.1-27.2,28.5-49.1,28.5-49.1s9.7-0.3,11.2-0.2c1.5,0.1,0.6,1.8,0.6,1.8
		s-2.6,8.4-3.3,25.1c-0.7,16.7,8.5,29.6,19.7,30.1c11.2,0.4,15.7-11.8,15.7-11.8s4.6,11.7,15.9,11.9c16.7,0.2,22.8-15.6,22.8-15.6
		c0.2,2.1,2.5,14.8,14.8,15.6c8.1,0.5,13.3-6.2,16.1-11.4l0.4,6.7c0,0-0.3,3.9,7.8,4.6c0,0,9.6,1.8,9.6-3.8c0-5.6,0.1-33.2,11.3-52
		c0,0,1.4-1.3,1.4,0.4c0,1.8,1.4,35.5,3.9,41.1c1.9,5.9,7.1,11.2,15.2,7.5c1.2-0.8,1-2.3,1-2.3s0.1-6.5,1.3-14.2
		c1.7-10.7,5.1-24.5,10.1-33.5c0.4-0.6,0.5,0,0.5,0s-0.7,13.5,0,25.5c0.9,16.1,4.8,31.9,19.7,31.4c0,0,15.7,0.4,15.7-25.5
		C741.7,86.7,739.4,86.1,739.4,86.1z M416,72.5c-0.5,24.3-9.6,32.5-14.7,31.9c-5.1-0.7-11.2-6.6-9.7-29.4
		c1.5-22.9,9.7-25.1,13.2-25.3C404.8,49.6,416.6,48.2,416,72.5z M486.7,72.7c-0.5,24.7-9.7,33-14.9,32.3c-5.2-0.7-11.3-6.7-9.8-29.8
		c2-22.1,11-25.2,14.5-25.4C476.5,49.7,487.3,48,486.7,72.7z M488.2,136c-0.3,12.5-2.3,26.7-14,25.5c-9.8-0.5-7.8-10.8-7.8-10.8
		s1.8-12.5,22-30C488.5,120.7,488.4,130.1,488.2,136z M610.7,73.3c-0.5,24.3-9.6,32.5-14.7,31.9c-5.1-0.7-11.2-6.6-9.7-29.4
		c1.5-22.9,9.7-25.1,13.2-25.3C599.5,50.5,611.2,49,610.7,73.3z"/>
	<path fill="#33598A" d="M193.9,6.3c0,0-0.2-2.9-5.5-4.7c-5.3-1.9-7.5-1.5-7.5-1.5s-7,0.3-18.2,11.4c-11.2,11-15.5,26.6-15.7,33.4
		c0,0-0.1,5.4,2.3,10.5c2.9,6.8,10.8,12.5,15.8,12.9c0,0,2.1,0.2,2.1-2.1c0.2-1.6-1.2-2.8-1.2-2.8s-5.1-6-4.9-17.7
		c0.4-7.8,2.1-23.9,15.4-35.3c1.4-0.5,1.1,1.1,1.1,1.1l-0.3,87c0,0,0.3,14.9-3.1,23.5c0,0-1.2,3.3-1,4.6c0.2,1.3,0.9,1.4,1.8,1.4
		c0.4,0,3.5-0.4,7.3-3.5c6.7-6,12.4-14.7,11.7-37.3V6.3z"/>
	<path fill="#33598A" d="M111.9,0.4H15.1C6.8,0.4,0,7.2,0,15.5v96.9c0,8.3,6.8,15.1,15.1,15.1h96.8c8.3,0,15.1-6.7,15.1-15.1V15.5
		C127,7.2,120.2,0.4,111.9,0.4z M88.2,18.4c0-2,1.6-3.5,3.6-3.5h17.2c2,0,3.6,1.6,3.6,3.5v17.1c0,2-1.6,3.5-3.6,3.5H91.8
		c-2,0-3.6-1.6-3.6-3.5V18.4z M63.6,39.7c13.5,0,24.4,10.9,24.4,24.4c0,13.5-10.9,24.4-24.4,24.4c-13.5,0-24.4-10.9-24.4-24.4
		C39.2,50.6,50.2,39.7,63.6,39.7z M112.8,109.1c0,2-1.6,3.5-3.6,3.5H18.1c-2,0-3.6-1.6-3.6-3.5V53.9h11.9c-0.9,3.2-1.4,6.7-1.4,10.2
		c0,21.3,17.3,38.5,38.6,38.5c21.3,0,38.6-17.3,38.6-38.5c0-3.5-0.5-6.9-1.4-10.2h11.9V109.1z"/>
</g>
</svg>
