<?xml version="1.0" encoding="utf-8"?>
<!-- Generator: Adobe Illustrator 18.1.0, SVG Export Plug-In . SVG Version: 6.00 Build 0)  -->
<svg version="1.1" id="Layer_1" xmlns="http://www.w3.org/2000/svg" xmlns:xlink="http://www.w3.org/1999/xlink" x="0px" y="0px"
	 viewBox="146 290 500 500" enable-background="new 146 290 500 500" xml:space="preserve">
<path fill="#FFFFFF" d="M224.6,475.6c0,45.1,16.6,85.2,52.1,100.3c5.8,2.5,11.1,0.1,12.7-6.6c1.1-4.6,4-16.3,5.2-21.1
	c1.8-6.6,1-8.9-3.7-14.6c-10.2-12.4-16.8-28.6-16.8-51.5c0-66.3,48-125.6,125.1-125.6c68.3,0,105.8,43,105.8,100.5
	c0,75.6-32.5,139.5-80.6,139.5c-26.6,0-46.5-22.7-40.1-50.5c7.6-33.2,22.5-69.1,22.5-93c0-21.5-11.2-39.4-34.3-39.4
	c-27.2,0-49,29-49,67.9c0,24.8,8.1,41.6,8.1,41.6S303.9,644.5,299,665.8c-9.7,42.4-1.5,94.4-0.7,99.6c0.4,3.1,4.3,3.9,6.1,1.6
	c2.5-3.3,34.9-44.6,45.8-85.8c3.1-11.6,17.9-72.1,17.9-72.1c8.9,17.3,34.7,32.7,62.1,32.7c81.8,0,137.2-76.9,137.2-179.8
	c0-77.8-63.9-150.3-160.9-150.3C285.6,311.7,224.6,401.1,224.6,475.6z"/>
</svg>
