<?xml version="1.0" encoding="utf-8"?>
<!-- Generator: Adobe Illustrator 18.1.0, SVG Export Plug-In . SVG Version: 6.00 Build 0)  -->
<svg version="1.1" id="Layer_1" xmlns="http://www.w3.org/2000/svg" xmlns:xlink="http://www.w3.org/1999/xlink" x="0px" y="0px"
	 viewBox="0 0 500 500" enable-background="new 0 0 500 500" xml:space="preserve">
<g>
	<path fill="#FFFFFF" d="M408,21.8C408,13,401.5,6,392.7,6H107c-8.8,0-15,7-15,15.8V54h316V21.8z"/>
	<path fill="#FFFFFF" d="M465.7,103H34c-17.5,0-31,13.5-31,31.1v190.4C3,342,16.5,356,34,356h58v139h316V356h57.7
		c17.5,0,31.3-14,31.3-31.5V134C497,116.5,483.3,103,465.7,103z M382,471H116V255h266V471z"/>
</g>
</svg>
