<?xml version="1.0" encoding="utf-8"?>
<!-- Generator: Adobe Illustrator 18.1.0, SVG Export Plug-In . SVG Version: 6.00 Build 0)  -->
<svg version="1.1" id="Layer_1" xmlns="http://www.w3.org/2000/svg" xmlns:xlink="http://www.w3.org/1999/xlink" x="0px" y="0px"
	 viewBox="0 0 500 500" enable-background="new 0 0 500 500" xml:space="preserve">
<path fill="#FFFFFF" d="M455.3,98H45.4C28.7,98,15,111.8,15,128.4v180.8c0,16.7,13.7,29.8,30.4,29.8H93V237h314v102h48.3
	c16.7,0,29.7-13.1,29.7-29.8V128.4C485,111.8,472,98,455.3,98z"/>
<path d="M400.7,60.8H99.3V30.7c0-8.3,6.8-15.1,15.1-15.1h271.3c8.3,0,15.1,6.8,15.1,15.1V60.8z"/>
<path fill="none" d="M415,232v95h40.3c9.7,0,16.7-8.1,16.7-17.8V128.4c0-9.7-7-18.4-16.7-18.4H45.4c-9.7,0-16.4,8.7-16.4,18.4v180.8
	c0,9.7,6.7,17.8,16.4,17.8H86v-95H415z"/>
<rect x="109" y="352" fill="none" width="283" height="109"/>
<path d="M455.3,86H45.4C21.8,86,3,104.8,3,128.4v180.8C3,332.8,21.8,352,45.4,352H86v-0.1V483h329V351.9v0.1h40.3
	c23.6,0,42.7-19.2,42.7-42.8V128.4C498,104.8,478.9,86,455.3,86z M392,326.8v25.1V461H109V351.9v-25.1V254h283V326.8z M472,309.2
	c0,9.7-7,17.8-16.7,17.8H415v-95H86v95H45.4c-9.7,0-16.4-8.1-16.4-17.8V128.4c0-9.7,6.7-18.4,16.4-18.4h409.9
	c9.7,0,16.7,8.7,16.7,18.4V309.2z"/>
</svg>
