<?xml version="1.0" encoding="utf-8"?>
<!-- Generator: Adobe Illustrator 18.1.0, SVG Export Plug-In . SVG Version: 6.00 Build 0)  -->
<svg version="1.1" id="Layer_1" xmlns="http://www.w3.org/2000/svg" xmlns:xlink="http://www.w3.org/1999/xlink" x="0px" y="0px"
	 viewBox="0 0 500 500" enable-background="new 0 0 500 500" xml:space="preserve">
<path d="M404.7,302.4l93.5-107.9l-80.1,0.1C394.9,115.7,322.6,61,240.4,61h-1.1c-49.5,0-96,20.1-130.9,55.6
	C73.5,152,54.4,199,54.7,248.8c0.3,49.8,19.8,96.4,55.1,131.5c35,34.8,81.3,53.8,130.5,53.8h0.8c1.3,0,2.7,0.2,4.1,0.2
	c28.1,0,86.5-11.8,127.7-56.4l6.1-6.6l-22.6-16.1l-4.8,4.5c-40.8,38.3-78.9,45-110.7,46.5c-42.2,0-81.8-16.2-111.5-45.7
	C99.7,330.7,83.1,291,82.8,248.7c-0.2-42.3,15.9-82.3,45.6-112.4C158,106.1,197.5,90,239.4,89h1c66.6,0,126.2,43.1,148.3,105.7
	l-78.4,0.3L404.7,302.4z"/>
</svg>
