<?xml version="1.0" encoding="utf-8"?>
<!-- Generator: Adobe Illustrator 18.1.0, SVG Export Plug-In . SVG Version: 6.00 Build 0)  -->
<svg version="1.1" id="Layer_1" xmlns="http://www.w3.org/2000/svg" xmlns:xlink="http://www.w3.org/1999/xlink" x="0px" y="0px"
	 viewBox="146 290 500 500" enable-background="new 146 290 500 500" xml:space="preserve">
<path fill="#FFFFFF" d="M389.9,458.5l0.9,15l-15.2-1.8c-55.4-7.1-103.8-31.1-145-71.3
	l-20.1-20l-5.2,14.7c-11,32.9-4,67.7,18.9,91c12.1,12.9,9.4,14.8-11.6,7.1c-7.3-2.4-13.7-4.3-14.3-3.4c-2.1,2.2,5.2,30.1,11,41.2
	c7.9,15.4,24.1,30.4,41.8,39.4l14.9,7l-17.7,0.3c-17.1,0-17.7,0.3-15.8,6.8c6.1,20,30.2,41.2,57,50.4l18.9,6.4l-16.5,9.8
	c-24.4,14.1-53,22.1-81.6,22.7c-13.7,0.3-25,1.5-25,2.5c0,3.1,37.2,20.3,58.8,27.1c64.9,20,141.9,11.4,199.8-22.8
	c41.1-24.3,82.2-72.6,101.4-119.3c10.3-24.9,20.7-70.4,20.7-92.2c0-14.1,0.9-16,18-32.9c10.1-9.8,19.5-20.6,21.3-23.7
	c3-5.8,2.7-5.8-12.8-0.6c-25.9,9.2-29.6,8-16.8-5.8c9.5-9.9,20.7-27.7,20.7-32.9c0-0.9-4.6,0.6-9.7,3.4c-5.5,3.1-17.7,7.7-26.8,10.5
	l-16.5,5.2l-14.9-10.2c-8.2-5.5-19.8-11.7-25.9-13.5c-15.5-4.3-39.3-3.7-53.3,1.2C411.2,383.8,387.2,419.4,389.9,458.5z"/>
</svg>
