<svg xmlns="http://www.w3.org/2000/svg" viewBox="0 0 500 500" enable-background="new 0 0 500 500"><path fill="#fff" d="M399.9 18.2H76.1c-31.9 0-58 26.1-58 58v347.7c0 31.9 26.1 58 58 58h347.7c31.9 0 58-26.1 58-58V108.8l-81.9-90.6z"/><path d="M423.9 494.9H76.1C36.9 494.9 5 463 5 423.8V76.1C5 36.9 36.9 5 76.1 5h329.6l89.2 98.7v320.1c0 39.3-31.8 71.1-71 71.1zM76.1 31.3c-24.7 0-44.8 20.1-44.8 44.8v347.7c0 24.7 20.1 44.8 44.8 44.8h347.7c24.7 0 44.8-20.1 44.8-44.8v-310l-74.7-82.6H76.1zM134 77v144.9c0 15.9 13.5 29.1 29.5 29.1h173.9c16 0 29.7-13.2 29.7-29.1V77H134zm203 144h-58V107h58v114z"/></svg>