<svg xmlns="http://www.w3.org/2000/svg" viewBox="0 0 619.6 156.8" enable-background="new 0 0 619.6 156.8"><g fill="#CA2027"><path d="M142.3 55.3c6.7 0 13.2-5.6 14.3-12.5 1.3-6.7-3.2-12.3-9.9-12.3s-13.2 5.6-14.3 12.3c-1.4 6.9 3 12.5 9.9 12.5zM598.5 75.2h15c2.1 0 3.3-.8 3.7-2.8.7-2.8 1.9-7.6 2.2-8.9.4-1.7-.6-3-2.5-3h-14.8c1.1-4.3 5.2-18.1 5.2-27.1 0-18-15.3-33.3-36.9-33.3C545.9.1 530 16.5 530 39.6c0 6.7 2.5 14.6 5.6 19.5-1.3-.1-2.6-.1-4-.1-18.6 0-30.3 10.1-30.3 24.8 0 13.8 10.9 19.1 21.1 22.7 9.1 3.2 17.4 4.6 17.4 11.7 0 4.8-4.6 7.6-13.6 7.6-10.7 0-16.6-5-18-6.9 1-.8 2.5-2.7 2.5-5.8 0-4.4-3.1-8-8.9-8-4.9 0-9 4-10 9.2-7.8 6.4-16.4 10.5-28.5 10.5-11.9 0-18.1-6.2-18.1-19.4 2.8.8 10.1 1.9 14.9 1.9 20.2 0 33.9-9.2 33.9-27.5 0-9.9-8.7-20.3-25.8-20.3-22.6 0-35.2 14.3-40.7 30-1.5-.4-3.1-.7-4.6-1.1 1.2-3.5 2.1-7.5 2.1-12 0-7.8-4.8-16.9-17.7-16.9-9 0-17.5 5.9-23.4 14.7 1.5-5.7 2.4-9.6 2.5-9.8.4-1.5-.2-3.2-2.6-3.2h-13.2c-1.9 0-3.2.7-3.7 2.8-.4 1.4-4.9 19.2-9.3 36.6-2.8 10.8-17.2 24.3-35.3 24.3-11.9 0-18.1-6.6-18.1-19.8 3.1 1.2 10.1 2.3 14.9 2.3 21 0 33.9-9.2 33.9-27.5 0-9.9-8.7-20.3-25.8-20.3-25.4 0-41 19.7-43.6 42.1-1.1 9.3-8.9 22.1-17.5 22.1-4.1 0-6.5-2.6-6.5-7 0-3.8 2.7-13.2 5.6-24.9 1-3.9 2.5-9.9 4.1-16.5h13.8c2.1 0 3.3-.8 3.7-2.8.7-2.8 1.9-7.6 2.2-8.9.4-1.7-.6-3-2.5-3h-13.6s6.3-25 6.4-25.6c.6-2.5-1.5-4-3.7-3.5 0 0-10.5 2.1-12.4 2.5-2 .4-3.5 1.5-4.2 4.3l-5.6 22.4h-10.9c-2.1 0-3.3.8-3.7 2.8-.7 2.8-1.9 7.6-2.2 8.9-.5 1.7.6 3 2.5 3h10.7c-.1.3-3.9 14.7-6.9 27.6-1.4 6.2-6.3 20.7-14.2 20.7-4.7 0-6.7-2.4-6.7-7.5 0-8 7.9-28.2 7.9-37.3 0-12.2-6.6-19.3-20-19.3-8.5 0-17.2 5.5-21 10.3 0 0 1.1-3.9 1.5-5.4.4-1.6-.4-3.2-2.5-3.2h-13.1c-2.8 0-3.6 1.5-4 3.1-.2.7-4.9 19.2-9.4 37.1-3.1 12.2-10.7 22.4-18.7 22.4-4.1 0-6-2.6-6-7 0-3.8 2.5-13.2 5.4-24.9 3.6-14.2 6.7-26 7.1-27.3.4-1.8-.3-3.3-2.6-3.3h-13.2c-2.4 0-3.2 1.3-3.7 3 0 0-3.7 14.1-7.7 29.7-2.9 11.4-6 22.9-6 28.4 0 9.7 4.4 17 16.3 17 9.2 0 16.6-4.7 22.2-10.7-.8 3.2-1.3 5.3-1.4 5.5-.5 1.8.1 3.5 2.3 3.5h13.5c2.4 0 3.3-.9 3.7-3 .5-2 10.6-41.6 10.6-41.6 2.7-10.7 9.3-17.7 18.5-17.7 4.4 0 8.2 2.9 7.8 8.6-.5 6.2-8 28.6-8 38.4 0 7.4 2.8 17.1 16.8 17.1 9.5 0 16.6-4.6 21.7-10.5 1.9 6.3 6.8 10.5 15.9 10.5 15.1 0 24.2-9 29.6-18 4.4 10.5 14.8 18 30.1 18 15.5 0 27.6-6.5 36.1-15.5-1.5 6-2.6 10.1-2.7 10.4-.5 1.9.3 3.4 2.5 3.4h13.4c1.8 0 3.1-.9 3.6-2.9.2-.9 2.2-8.4 4.9-19 5.2-20.3 13.6-41.4 26.2-41.4 4.4 0 6.3 2.5 6.3 6.4 0 1.8-.5 3.4-1 4.3-6.1-1.2-11 1.8-11 8.3 0 4.2 4.5 8.1 10.5 8.1 4.6 0 8.4-1.1 11.5-3.2 2.8.6 5.9 1.2 9 2-.5 3.1-.7 6.1-.7 8.9 0 16.3 11.6 30.1 32.5 30.1 16.3 0 27.6-6 37.2-13.6 4.7 7.6 16.4 13.8 31.8 13.8 21.1 0 33.1-11 33.1-25.5 0-13.1-10.8-18-21.9-22-9-3.3-16.6-5-16.6-11.4 0-5.2 4.1-7.6 11.2-7.6 4.6 0 8 1 9.9 1.5 1.8 4.6 5.6 9.6 12 9.6 5.5 0 7.9-4.3 7.9-8.3 0-11.3-18.8-12.5-18.8-36.7 0-15.1 8.5-27.5 26.2-27.5 12.3 0 20.3 7.8 20.3 20.3 0 10.4-6.3 28.8-6.3 28.8H572c-2.1 0-3.3.8-3.7 2.8-.7 2.8-1.9 7.6-2.2 8.9-.4 1.7.6 3 2.5 3H579s-10.8 39.7-10.8 47c0 9.7 5.5 17 17.5 17 17 0 27.5-11 32.2-27 .4-1.2-.3-2.2-1.6-2.2h-6.5c-1.3 0-2 .7-2.4 2-1.5 5.7-5.1 11.7-12.2 11.7-4.1 0-6.5-2.6-6.5-7 0-3.8 2.5-12.8 5.6-24.9 1.5-6.3 4.2-17.1 4.2-17.1zm-133.7-.6c6 0 8.8 4 8.8 8.7 0 8-6.2 12.9-16 12.9-3.5 0-8.4-.8-11.2-1.8 1.2-7.3 6.6-19.8 18.4-19.8zm-141 0c6.6 0 8.8 4 8.8 8.7 0 8-6.2 12.9-16 12.9-3.5 0-8.4-.8-11.3-1.8 1.3-7.3 6-19.8 18.5-19.8zM64.3 0C21.6 0 0 30.7 0 56.2c0 15.5 5.9 29.3 18.4 34.4 2.1.8 3.9 0 4.5-2.3l1.8-7.2c.6-2.3.4-3.1-1.3-5-3.6-4.3-5.9-9.8-5.9-17.7 0-22.8 17-43.1 44.3-43.1 24.2 0 37.5 14.8 37.5 34.5 0 26-11.5 47.9-28.5 47.9-9.4 0-16.5-7.8-14.2-17.3 2.7-11.4 7.9-23.7 7.9-31.9 0-7.4-4-13.5-12.1-13.5C42.8 35 35 45 35 58.3c0 8.5 2.9 14.2 2.9 14.2s-9.9 41.8-11.6 49.1c-3.4 14.6-.5 32.4-.3 34.2.1 1.1 1.5 1.3 2.1.5.9-1.2 12.4-15.3 16.3-29.5 1.1-4 6.3-24.7 6.3-24.7 3.1 6 12.3 11.2 22 11.2 28.9 0 48.6-26.4 48.6-61.7 0-26.7-22.6-51.6-57-51.6z"/></g></svg>