<svg xmlns="http://www.w3.org/2000/svg" viewBox="175.5 -92.5 500 500" enable-background="new 175.5 -92.5 500 500"><path d="M490.1 259.9l-2.8 2.1c-33.2 24.3-74 37.7-115.1 37.7-107.8 0-195.5-87.6-195.5-195.4C176.8 52 197.1 2.9 234-34c37-36.9 86.1-57.2 138.3-57.2 107.7 0 195.4 87.7 195.4 195.5 0 40.8-13.4 81.7-37.7 115l-2.1 2.8 146.4 146.3-37.8 37.8-146.4-146.3zm-118-297.7c-37.9 0-73.5 14.8-100.4 41.7C244.8 30.7 230 66.3 230 104.3c0 78.3 63.7 142 142 142s142-63.7 142-142S450.5-37.8 372.1-37.8z"/></svg>