<svg xmlns="http://www.w3.org/2000/svg" viewBox="146 290 500 500" enable-background="new 146 290 500 500"><path fill="#fff" d="M389.9 458.5l.9 15-15.2-1.8c-55.4-7.1-103.8-31.1-145-71.3l-20.1-20-5.2 14.7c-11 32.9-4 67.7 18.9 91 12.1 12.9 9.4 14.8-11.6 7.1-7.3-2.4-13.7-4.3-14.3-3.4-2.1 2.2 5.2 30.1 11 41.2 7.9 15.4 24.1 30.4 41.8 39.4l14.9 7-17.7.3c-17.1 0-17.7.3-15.8 6.8 6.1 20 30.2 41.2 57 50.4l18.9 6.4-16.5 9.8c-24.4 14.1-53 22.1-81.6 22.7-13.7.3-25 1.5-25 2.5 0 3.1 37.2 20.3 58.8 27.1 64.9 20 141.9 11.4 199.8-22.8 41.1-24.3 82.2-72.6 101.4-119.3 10.3-24.9 20.7-70.4 20.7-92.2 0-14.1.9-16 18-32.9 10.1-9.8 19.5-20.6 21.3-23.7 3-5.8 2.7-5.8-12.8-.6-25.9 9.2-29.6 8-16.8-5.8 9.5-9.9 20.7-27.7 20.7-32.9 0-.9-4.6.6-9.7 3.4-5.5 3.1-17.7 7.7-26.8 10.5l-16.5 5.2-14.9-10.2c-8.2-5.5-19.8-11.7-25.9-13.5-15.5-4.3-39.3-3.7-53.3 1.2-38.1 14-62.1 49.6-59.4 88.7z"/></svg>