<svg xmlns="http://www.w3.org/2000/svg" viewBox="0 0 200 162.5" enable-background="new 0 0 200 162.5"><path fill="#2AA9E0" d="M199 19.9c-7.3 3.2-15.1 5.4-23.3 6.4 8.4-5 14.8-13 17.9-22.5-7.8 4.7-16.5 8-25.8 9.9-7.4-7.9-18-12.8-29.7-12.8-22.4 0-40.6 18.2-40.6 40.6 0 3.2.4 6.3 1.1 9.3-33.8-1.8-63.8-18-83.8-42.6-3.5 6-5.5 13-5.5 20.4 0 14.1 7.2 26.5 18.1 33.8-6.7-.2-12.9-2-18.4-5.1v.5C9 77.6 23 94 41.5 97.7c-3.4.9-7 1.4-10.7 1.4-2.6 0-5.2-.3-7.6-.7 5.2 16.1 20.2 27.9 37.9 28.2C47.2 137.5 29.7 144 10.7 144c-3.3 0-6.5-.2-9.7-.6 18 11.5 39.3 18.3 62.3 18.3 74.7 0 115.6-61.9 115.6-115.6 0-1.8 0-3.5-.1-5.3 7.9-5.6 14.8-12.8 20.2-20.9z"/></svg>