<svg xmlns="http://www.w3.org/2000/svg" viewBox="0 0 735.8 150.7" enable-background="new 0 0 735.8 150.7"><path fill="#4967A9" d="M392.7 73.2c-6.3 0-10.8 2.1-15.4 4.2v47.5c4.4.4 6.9.4 11.1.4 15.1 0 17.2-6.9 17.2-16.6V86.1c0-7.1-2.4-12.9-12.9-12.9m-100.4-2.6c-10.5 0-12.9 5.8-12.9 12.9v4h25.8v-4c0-7.1-2.4-12.9-12.9-12.9M97.8 120.1c0 5.6 2.7 8.6 8.5 8.6 6.3 0 10-2.1 14.6-4.2v-11.3h-13.8c-6.4.1-9.3 1.3-9.3 6.9m392.6-46.9c-10.5 0-14.1 5.7-14.1 12.8v26c0 7.1 3.6 12.9 14.1 12.9s14.1-5.7 14.1-12.9V86c0-7-3.7-12.8-14.1-12.8M46.3 149.3H15.4V74.6H0V48.9h15.4V33.5c0-21 8.7-33.5 33.5-33.5h20.6v25.7H56.6c-9.6 0-10.3 3.6-10.3 10.3v12.9h23.3l-2.7 25.7H46.3v74.7zm105.6.2h-25.7L125 143c-11.8 6.5-22.2 7.6-29.2 7.6-18.9 0-28.9-12.6-28.9-30 0-20.5 11.7-27.9 32.7-27.9H121v-4.4c0-10.5-1.2-13.6-17.4-13.6H77.2L79.8 49h28.9c35.4 0 43.2 11.2 43.2 39.5v61zm87.5-73c-16-2.7-20.6-3.3-28.3-3.3-13.8 0-18 3.1-18 14.8v22.2c0 11.7 4.2 14.8 18 14.8 7.7 0 12.3-.6 28.3-3.4v25.1c-14 3.1-23.2 4-30.9 4-33.2 0-46.3-17.4-46.3-42.6v-18c0-25.2 13.2-42.6 46.3-42.6 7.7 0 16.9.8 30.9 4v25zm96.7 31.6h-56.6v2.1c0 11.7 4.2 14.8 18 14.8 12.4 0 20-.6 36-3.4v25.1c-15.4 3.1-23.4 4-38.6 4-33.2 0-46.3-17.4-46.3-42.6V87.5c0-22 9.8-40 43.8-40s43.8 17.8 43.8 40v20.6zm100.4.5c0 24.3-7 42.1-49.1 42.1-15.2 0-24.2-1.3-41-3.9V7.7l30.9-5.1v48.6c6.7-2.5 15.3-3.7 23.2-3.7 30.9 0 36 13.8 36 36v25.1zm98.9.5c0 21-8.7 41.3-45 41.3s-45.1-20.3-45.1-41.3V88.9c0-21 8.8-41.3 45.1-41.3s45 20.3 45 41.3v20.2zm98.9 0c0 21-8.7 41.3-44.9 41.3-36.3 0-45.1-20.3-45.1-41.3V88.9c0-21 8.8-41.3 45.1-41.3s44.9 20.3 44.9 41.3v20.2zm101.5 40.2h-33.5L674 102.1v47.2h-30.9V7.7L674 2.6v91.1l28.3-44.8h33.5l-30.9 48.9 30.9 51.5zM589.3 73.2c-10.5 0-14.1 5.7-14.1 12.8v26c0 7.1 3.6 12.9 14.1 12.9s14.2-5.7 14.2-12.9V86c-.1-7-3.8-12.8-14.2-12.8"/></svg>