<svg xmlns="http://www.w3.org/2000/svg" width="222.1" height="37.7" viewBox="0 0 222.1 37.7"><g fill="#fff"><path d="M84.2 36.8h24.9v-6h-19v-8.9h18v-6h-18V7h19V1H84.2zM133.5 1h-6v35.8h23.2v-6h-17.2zM161.5 1h-5.9v35.8h23.1v-6h-17.2zM115.3 1h6v35.8h-6zM18.6.4C8.3.4 0 8.8 0 19.1c0 10.3 8.3 18.6 18.6 18.6s18.6-8.3 18.6-18.6C37.3 8.8 28.9.4 18.6.4zm9 27.6c-2.3 2.3-5.4 3.7-9 3.7s-6.7-1.4-9-3.7c-2.3-2.3-3.7-5.5-3.7-9s1.4-6.7 3.7-9c2.3-2.3 5.5-3.7 9-3.7s6.7 1.4 9 3.7c2.3 2.3 3.7 5.5 3.7 9 0 3.6-1.4 6.7-3.7 9zM78.2 11.4C78.2 5.7 73.5 1 67.7 1h-18v35.8h6V21.9H64l9 14.9h7l-9.3-15.4c4.3-1.2 7.5-5.2 7.5-10zm-22.5 4.5V7h12c2.5 0 4.5 2 4.5 4.5s-2 4.5-4.5 4.5h-12zM41.1.4c-2.4 0-4.4 2-4.4 4.4 0 2.4 2 4.4 4.4 4.4 2.4 0 4.4-2 4.4-4.4 0-2.4-1.9-4.4-4.4-4.4zM188.9 14.3L179.7 1h-7.2l13.4 19.5v16.3h6V20.5L205.3 1h-7.2zM215.8 0c-3.4 0-6.2 2.8-6.2 6.3 0 3.4 2.8 6.2 6.2 6.2 3.4 0 6.2-2.8 6.2-6.2.1-3.5-2.7-6.3-6.2-6.3zm0 11.5c-2.9 0-5.2-2.4-5.2-5.2 0-2.9 2.4-5.3 5.2-5.3 2.9 0 5.2 2.3 5.2 5.3.1 2.8-2.3 5.2-5.2 5.2zM218.6 4.9c0-1-.8-1.9-1.9-1.9h-3.5v6.4h1.1V6.7h1.8l1.3 2.6h1.2l-1.3-2.7c.7-.1 1.3-.9 1.3-1.7zm-1.8.8h-2.5V4.1h2.5c.4 0 .8.4.8.8s-.4.8-.8.8z"/></g></svg>