<?xml version="1.0" encoding="utf-8"?>
<!-- Generator: Adobe Illustrator 18.1.0, SVG Export Plug-In . SVG Version: 6.00 Build 0)  -->
<svg version="1.1" id="Bow" xmlns="http://www.w3.org/2000/svg" xmlns:xlink="http://www.w3.org/1999/xlink" x="0px" y="0px"
	 viewBox="0 0 100 15" enable-background="new 0 0 100 15" xml:space="preserve">
<image overflow="visible" width="417" height="22" xlink:href="F639451693763511.png"  transform="matrix(0.24 0 0 0.24 -3.320000e-02 4.7415)">
</image>
<g>
	<g>
		
			<image overflow="visible" width="48" height="29" xlink:href="F639451693763513.png"  transform="matrix(0.24 0 0 0.24 65.5156 6.9964)">
		</image>
		
			<image overflow="visible" width="43" height="33" xlink:href="F639451693763516.png"  transform="matrix(0.24 0 0 0.24 76.5039 6.9966)">
		</image>
	</g>
	<g>
		
			<linearGradient id="SVGID_1_" gradientUnits="userSpaceOnUse" x1="-114.4975" y1="-21.6815" x2="-103.7733" y2="-21.6815" gradientTransform="matrix(0.8259 7.730000e-02 -7.670000e-02 0.8255 159.7538 29.0956)">
			<stop  offset="0" style="stop-color:#C02026"/>
			<stop  offset="1.008059e-02" style="stop-color:#C4282A"/>
			<stop  offset="4.139379e-02" style="stop-color:#D03A38"/>
			<stop  offset="7.547688e-02" style="stop-color:#DA4847"/>
			<stop  offset="0.1128" style="stop-color:#E25353"/>
			<stop  offset="0.155" style="stop-color:#EA5B5C"/>
			<stop  offset="0.2061" style="stop-color:#EF6061"/>
			<stop  offset="0.2912" style="stop-color:#F16263"/>
			<stop  offset="0.3062" style="stop-color:#EA5B5C"/>
			<stop  offset="0.3529" style="stop-color:#DC4B49"/>
			<stop  offset="0.4037" style="stop-color:#D33F3A"/>
			<stop  offset="0.4593" style="stop-color:#CC3530"/>
			<stop  offset="0.5222" style="stop-color:#C82D2A"/>
			<stop  offset="0.5985" style="stop-color:#C52827"/>
			<stop  offset="0.7253" style="stop-color:#C42726"/>
		</linearGradient>
		<path fill="url(#SVGID_1_)" d="M75.5,5.1c-0.8-0.8-3.7-0.1-5.7-0.7c-2-0.6-3.4-3-2.6-3.7C68,0,70.3,1.4,71.5,1.9
			C72.6,2.4,74.7,4.2,75.5,5.1z"/>
		
			<linearGradient id="SVGID_2_" gradientUnits="userSpaceOnUse" x1="-101.0441" y1="-21.6912" x2="-90.2661" y2="-21.6912" gradientTransform="matrix(0.8259 7.730000e-02 -7.670000e-02 0.8255 159.7538 29.0956)">
			<stop  offset="0.5" style="stop-color:#C02026"/>
			<stop  offset="0.5027" style="stop-color:#C4282A"/>
			<stop  offset="0.5109" style="stop-color:#D03A38"/>
			<stop  offset="0.5199" style="stop-color:#DA4847"/>
			<stop  offset="0.5298" style="stop-color:#E25353"/>
			<stop  offset="0.5409" style="stop-color:#EA5B5C"/>
			<stop  offset="0.5545" style="stop-color:#EF6061"/>
			<stop  offset="0.5769" style="stop-color:#F16263"/>
		</linearGradient>
		<path fill="url(#SVGID_2_)" d="M77.8,5.7c1-0.5,4.3-0.1,5.7-0.3c1.4-0.2,3.9-2.4,3.5-3.1c-0.3-0.7-1.8-0.4-3.4,0
			C81.1,2.9,77.8,5.7,77.8,5.7z"/>
		
			<image overflow="visible" width="36" height="20" xlink:href="F639451693763517.png"  transform="matrix(0.24 0 0 0.24 66.9033 0.577)">
		</image>
		
			<linearGradient id="SVGID_3_" gradientUnits="userSpaceOnUse" x1="-116.14" y1="-19.7102" x2="-101.8206" y2="-19.7102" gradientTransform="matrix(0.8259 7.730000e-02 -7.670000e-02 0.8255 159.7538 29.0956)">
			<stop  offset="8.791210e-02" style="stop-color:#C02026"/>
			<stop  offset="9.494950e-02" style="stop-color:#C4282A"/>
			<stop  offset="0.1168" style="stop-color:#D03A38"/>
			<stop  offset="0.1406" style="stop-color:#DA4847"/>
			<stop  offset="0.1667" style="stop-color:#E25353"/>
			<stop  offset="0.1961" style="stop-color:#EA5B5C"/>
			<stop  offset="0.2318" style="stop-color:#EF6061"/>
			<stop  offset="0.2912" style="stop-color:#F16263"/>
			<stop  offset="0.2959" style="stop-color:#F26B6A"/>
			<stop  offset="0.3101" style="stop-color:#F47F7D"/>
			<stop  offset="0.3258" style="stop-color:#F58F8E"/>
			<stop  offset="0.3436" style="stop-color:#F6999A"/>
			<stop  offset="0.3652" style="stop-color:#F6A0A1"/>
			<stop  offset="0.4011" style="stop-color:#F7A2A4"/>
			<stop  offset="0.4085" style="stop-color:#F69A9A"/>
			<stop  offset="0.4313" style="stop-color:#F48685"/>
			<stop  offset="0.4565" style="stop-color:#F37775"/>
			<stop  offset="0.485" style="stop-color:#F26B6B"/>
			<stop  offset="0.5195" style="stop-color:#F16465"/>
			<stop  offset="0.5769" style="stop-color:#F16263"/>
			<stop  offset="0.5821" style="stop-color:#EA5B5C"/>
			<stop  offset="0.598" style="stop-color:#DC4B49"/>
			<stop  offset="0.6154" style="stop-color:#D33F3A"/>
			<stop  offset="0.6344" style="stop-color:#CC3530"/>
			<stop  offset="0.6559" style="stop-color:#C82D2A"/>
			<stop  offset="0.6819" style="stop-color:#C52827"/>
			<stop  offset="0.7253" style="stop-color:#C42726"/>
			<stop  offset="0.7912" style="stop-color:#741412"/>
		</linearGradient>
		<path fill="url(#SVGID_3_)" d="M76.1,5.6c0,0,0.1,0.1-0.3-0.3c0.1,0.1-0.4-0.3-0.3-0.3c-0.8-0.8-2.6-2.2-4.7-2.8
			c-1.5-0.4-3.1-0.7-3.6-1.1c-0.2-0.1-0.1-0.3,0.1-0.5c-0.3,0-0.5,0.8-0.9,2c-0.2,0.7-0.7,2.6-1.1,3.1c-0.5,0.5,1.7,1.2,2.6,1.4
			c0.8,0.2,3.9,1.1,7.4-0.2C78.8,5.7,76.1,5.6,76.1,5.6z"/>
		
			<image overflow="visible" width="51" height="29" xlink:href="F639451693763512.png"  transform="matrix(0.24 0 0 0.24 64.9304 0.9614)">
		</image>
		
			<image overflow="visible" width="41" height="17" xlink:href="F63945169376351D.png"  transform="matrix(0.24 0 0 0.24 77.2881 1.9162)">
		</image>
		
			<linearGradient id="SVGID_4_" gradientUnits="userSpaceOnUse" x1="-101.5601" y1="-19.9011" x2="-88.375" y2="-19.9011" gradientTransform="matrix(0.8259 7.730000e-02 -7.670000e-02 0.8255 159.7538 29.0956)">
			<stop  offset="8.791210e-02" style="stop-color:#C02026"/>
			<stop  offset="9.494950e-02" style="stop-color:#C4282A"/>
			<stop  offset="0.1168" style="stop-color:#D03A38"/>
			<stop  offset="0.1406" style="stop-color:#DA4847"/>
			<stop  offset="0.1667" style="stop-color:#E25353"/>
			<stop  offset="0.1961" style="stop-color:#EA5B5C"/>
			<stop  offset="0.2318" style="stop-color:#EF6061"/>
			<stop  offset="0.2912" style="stop-color:#F16263"/>
			<stop  offset="0.2959" style="stop-color:#F26B6A"/>
			<stop  offset="0.3101" style="stop-color:#F47F7D"/>
			<stop  offset="0.3258" style="stop-color:#F58F8E"/>
			<stop  offset="0.3436" style="stop-color:#F6999A"/>
			<stop  offset="0.3652" style="stop-color:#F6A0A1"/>
			<stop  offset="0.4011" style="stop-color:#F7A2A4"/>
			<stop  offset="0.4085" style="stop-color:#F69A9A"/>
			<stop  offset="0.4313" style="stop-color:#F48685"/>
			<stop  offset="0.4565" style="stop-color:#F37775"/>
			<stop  offset="0.485" style="stop-color:#F26B6B"/>
			<stop  offset="0.5195" style="stop-color:#F16465"/>
			<stop  offset="0.5769" style="stop-color:#F16263"/>
		</linearGradient>
		<path fill="url(#SVGID_4_)" d="M87.1,3.8c-0.2-1,0.1-1.5-0.3-1.7c0.1,0.2,0.1,0.4-0.1,0.6c-0.7,0.4-2.5,0.7-3.6,0.8
			c-1.4,0.2-4.3,1.6-5.3,2.1c-0.2,0.2-0.3,0.3-0.5,0.5l-0.1,1.1c0,0,2.5,1.4,6.1,1.7c2.7,0.3,4.8-1,4.9-1.7
			C88.3,6.6,87.3,4.7,87.1,3.8z"/>
		
			<image overflow="visible" width="47" height="28" xlink:href="F63945169376351E.png"  transform="matrix(0.24 0 0 0.24 77.2768 2.4136)">
		</image>
		
			<image overflow="visible" width="12" height="12" xlink:href="F63945169376351F.png"  transform="matrix(0.24 0 0 0.24 75.1387 5.0473)">
		</image>
	</g>
</g>
</svg>
