<?xml version="1.0" encoding="utf-8"?>
<!-- Generator: Adobe Illustrator 17.1.0, SVG Export Plug-In . SVG Version: 6.00 Build 0)  -->
<!DOCTYPE svg PUBLIC "-//W3C//DTD SVG 1.1//EN" "http://www.w3.org/Graphics/SVG/1.1/DTD/svg11.dtd">
<svg version="1.1" id="Layer_1" xmlns="http://www.w3.org/2000/svg" xmlns:xlink="http://www.w3.org/1999/xlink" x="0px" y="0px"
	 width="222.1px" height="37.7px" viewBox="0 0 222.1 37.7" enable-background="new 0 0 222.1 37.7" xml:space="preserve">
<g>
	<polygon fill="#FFFFFF" points="84.2,36.8 109.1,36.8 109.1,30.8 90.1,30.8 90.1,21.9 108.1,21.9 108.1,15.9 90.1,15.9 90.1,7 
		109.1,7 109.1,1 84.2,1 	"/>
	<polygon fill="#FFFFFF" points="133.5,1 127.5,1 127.5,36.8 150.7,36.8 150.7,30.8 133.5,30.8 	"/>
	<polygon fill="#FFFFFF" points="161.5,1 155.6,1 155.6,36.8 178.7,36.8 178.7,30.8 161.5,30.8 	"/>
	<rect x="115.3" y="1" fill="#FFFFFF" width="6" height="35.8"/>
	<path fill="#FFFFFF" d="M18.6,0.4C8.3,0.4,0,8.8,0,19.1c0,10.3,8.3,18.6,18.6,18.6c10.3,0,18.6-8.3,18.6-18.6
		C37.3,8.8,28.9,0.4,18.6,0.4z M27.6,28c-2.3,2.3-5.4,3.7-9,3.7s-6.7-1.4-9-3.7c-2.3-2.3-3.7-5.5-3.7-9c0-3.5,1.4-6.7,3.7-9
		c2.3-2.3,5.5-3.7,9-3.7c3.5,0,6.7,1.4,9,3.7c2.3,2.3,3.7,5.5,3.7,9C31.3,22.6,29.9,25.7,27.6,28z"/>
	<path fill="#FFFFFF" d="M78.2,11.4C78.2,5.7,73.5,1,67.7,1h-18v35.8h6V21.9H64l9,14.9h7l-9.3-15.4C75,20.2,78.2,16.2,78.2,11.4z
		 M55.7,15.9V7h12c2.5,0,4.5,2,4.5,4.5c0,2.5-2,4.5-4.5,4.5H55.7z"/>
	<path fill="#FFFFFF" d="M41.1,0.4c-2.4,0-4.4,2-4.4,4.4c0,2.4,2,4.4,4.4,4.4c2.4,0,4.4-2,4.4-4.4C45.5,2.4,43.6,0.4,41.1,0.4z"/>
	<polygon fill="#FFFFFF" points="188.9,14.3 179.7,1 172.5,1 185.9,20.5 185.9,36.8 191.9,36.8 191.9,20.5 205.3,1 198.1,1 	"/>
	<path fill="#FFFFFF" d="M215.8,0c-3.4,0-6.2,2.8-6.2,6.3c0,3.4,2.8,6.2,6.2,6.2c3.4,0,6.2-2.8,6.2-6.2C222.1,2.8,219.3,0,215.8,0z
		 M215.8,11.5c-2.9,0-5.2-2.4-5.2-5.2c0-2.9,2.4-5.3,5.2-5.3c2.9,0,5.2,2.3,5.2,5.3C221.1,9.1,218.7,11.5,215.8,11.5z"/>
	<path fill="#FFFFFF" d="M218.6,4.9c0-1-0.8-1.9-1.9-1.9h-3.5v6.4h1.1V6.7h1.8l1.3,2.6h1.2l-1.3-2.7C218,6.5,218.6,5.7,218.6,4.9z
		 M216.8,5.7h-2.5V4.1h2.5c0.4,0,0.8,0.4,0.8,0.8C217.6,5.3,217.2,5.7,216.8,5.7z"/>
</g>
</svg>
