<?xml version="1.0" encoding="utf-8"?>
<!-- Generator: Adobe Illustrator 17.1.0, SVG Export Plug-In . SVG Version: 6.00 Build 0)  -->
<!DOCTYPE svg PUBLIC "-//W3C//DTD SVG 1.1//EN" "http://www.w3.org/Graphics/SVG/1.1/DTD/svg11.dtd">
<svg version="1.1" xmlns="http://www.w3.org/2000/svg" xmlns:xlink="http://www.w3.org/1999/xlink" x="0px" y="0px" width="129.5px"
	 height="131.2px" viewBox="0 0 129.5 131.2" enable-background="new 0 0 129.5 131.2" xml:space="preserve">
<g id="Layer_1">
</g>
<g id="Layer_2">
	<g>
		<path fill="#FFFFFF" d="M110.7,0H18.9C8.5,0,0,8.6,0,19.1v93c0,10.5,8.5,19.1,18.9,19.1h91.8c10.4,0,18.9-8.6,18.9-19.1v-93
			C129.5,8.6,121.1,0,110.7,0z M125.1,112.1c0,8.1-6.5,14.7-14.5,14.7H18.9c-8,0-14.5-6.6-14.5-14.7v-93c0-8.1,6.5-14.7,14.5-14.7
			h91.8c8,0,14.5,6.6,14.5,14.7V112.1z"/>
		<path fill="#FFFFFF" d="M32.1,95.1c-1.8-2.7-2.7-8.3-2.7-16.7V24.3v-1.5h-1.5h-6.7h-1.5v1.5v54.8c0,0.1,0,0.2,0,0.2
			c0,8.4,0.7,14.1,2.1,17.7c2.2,5.5,6.8,9.4,13.6,11.5l1.1,0.3l0.6-1l3.6-5.8l1-1.6l-1.8-0.6C36,98.6,33.3,97,32.1,95.1z"/>
		<path fill="#FFFFFF" d="M51.5,22.8c-3.4,0-5.3,1.9-5.3,5.3c0,3.3,1.9,5.3,5.3,5.3c3.3,0,5.3-1.9,5.3-5.3
			C56.8,24.7,54.9,22.8,51.5,22.8z"/>
		<polygon fill="#FFFFFF" points="48.2,38.9 46.7,38.9 46.7,40.4 46.7,106.1 46.7,107.6 48.2,107.6 54.8,107.6 56.3,107.6 
			56.3,106.1 56.3,40.4 56.3,38.9 54.8,38.9 		"/>
		<path fill="#FFFFFF" d="M80.1,35c0.9-0.9,2.9-2.2,7.6-3.7l1.8-0.6l-1-1.6l-3.6-5.9l-0.6-1l-1.1,0.3c-6.8,2.1-11.3,5.8-13.5,10.9
			c-1.5,3.5-2.2,9-2.2,17c0,0.1-0.1,0.3-0.1,0.5V54h-2.8h-1.5v1.5V62v1.5h1.5h2.8v42.6v1.5h1.5h6.5h1.5v-1.5V63.5h8.8h1.5V62v-6.6
			V54h-1.5h-8.8v-2.2V47c0-1.2,0.1-2.7,0.3-4.8C77.5,38.9,78.5,36.4,80.1,35z"/>
		<path fill="#FFFFFF" d="M107.6,41.7c-2.2-1.8-4.5-2.7-7.1-2.7H100c-2.6,0-4.9,0.9-7.1,2.6c-2.4,1.9-3.6,4.3-3.6,7v36.5
			c0,6.6,0.6,11.3,2,14.4c2,4.6,5.9,7.9,11.7,9.6l1.8,0.5l1-1.6l2.9-4.6l1.6-2.6l-3-0.9c-3.3-1-4.9-2.1-5.6-2.9
			c-0.5-0.5-1-1.3-1.3-2.1h0.1c2.5,0,4.9-0.9,7.1-2.7c2.3-1.9,3.5-4.3,3.5-6.9V48.6C111,45.9,109.8,43.6,107.6,41.7z M103,83.9
			c0,1.6-1.3,2.9-2.8,2.9c-1.6,0-2.8-1.3-2.8-2.9V50.8c0-1.6,1.3-2.9,2.8-2.9c1.6,0,2.8,1.3,2.8,2.9V83.9z"/>
	</g>
</g>
</svg>
